<svg id="Ebene_1" data-name="Ebene 1" xmlns="http://www.w3.org/2000/svg" viewBox="0 0 283.46 97.55"><defs><style>.cls-1{fill:#0082a1;}.cls-2{fill:#fe9915;}</style></defs><title>bsi-logo</title><path class="cls-1" d="M454.43,283.55c4.3,5.09,6.39,14.08,6.39,27,0,13.43-2.61,22.69-7.69,28s-13.43,7.82-25,7.82c-12,0-22-1.56-30.26-4.7V250.43h20.08v29.34A36,36,0,0,1,434.48,276C443.61,276,450.26,278.47,454.43,283.55Zm-13.69,27.39c0-6.91-.91-11.61-2.61-14.08s-4.83-3.65-9.52-3.65c-6.13,0-10.69,2-10.69,4.7v30.78a27.75,27.75,0,0,0,10.17,1.7C438,330.11,440.22,328.15,440.74,310.94Z" transform="translate(-279.21 -248.86)"/><path class="cls-1" d="M520.29,294.51a72.64,72.64,0,0,0-19.69-2.87c-6.91,0-9.39.91-9.39,5.74,0,3.52,1.83,4.56,12.13,5.74,16,2.09,22.43,7.17,22.43,20.34,0,16.82-11.22,23-29.86,23-9.13,0-17.08-1.17-23.74-3.65l3.91-15.13A68.35,68.35,0,0,0,495,330.37c8.48,0,11.48-1,11.48-5.87,0-3.78-2.48-5.09-13.3-6.13-15-1.43-21.39-6-21.39-19.56,0-16.82,11-22.82,29.6-22.82a67,67,0,0,1,22.82,3.65Z" transform="translate(-279.21 -248.86)"/><path class="cls-1" d="M551.33,268.95c-8.87,0-11.35-1.83-11.35-10.56,0-8,2.48-9.52,11.35-9.52s11.35,1.57,11.35,9.52C562.68,267.12,560.2,268.95,551.33,268.95Zm10,8.87v66.77H541.29V277.81h20.08Z" transform="translate(-279.21 -248.86)"/><path class="cls-2" d="M306.44,317.6h0c4.61-.32,6-3.39,5.92-4.83-0.13-3.16-1.23-4.64-3.06-7.24-2.39-3.4-6-7.73-6.89-15.73a27.82,27.82,0,0,1,6-20.55c3.66-4.36,8.9-6.79,15.17-7.22,0.57,0,1.14-.06,1.7-0.06h0a20.69,20.69,0,0,1,15.31,6.27A27,27,0,0,1,348,287.55c-0.31,8.71-3.64,13.35-5.58,16.67-1.53,2.61-2.23,3.71-1.89,6.73,0.11,1,1.38,4.81,5.28,4.81H346l27.46-1.29v-64h-94.2v68.44Z" transform="translate(-279.21 -248.86)"/><path class="cls-1" d="M373.42,344.63V320.21l-27.27,1.28c-7.13.17-10.83-5.85-11.28-9.91-1.12-10.09,6.94-10.08,7.44-24.23,0.37-10.55-6.69-20.38-18.36-19.59-12.45.85-16.87,11.7-15.83,21.43,1.36,12.65,9.57,13.33,10,23.35,0.18,4.32-3.34,10.25-11.26,10.79l-27.62,1.29v20h94.2Z" transform="translate(-279.21 -248.86)"/></svg>